<?xml version="1.0" standalone="no"?><!DOCTYPE svg PUBLIC "-//W3C//DTD SVG 1.1//EN" "http://www.w3.org/Graphics/SVG/1.1/DTD/svg11.dtd"><svg t="1551260985176" class="icon" style="" viewBox="0 0 1025 1024" version="1.1" xmlns="http://www.w3.org/2000/svg" p-id="3318" xmlns:xlink="http://www.w3.org/1999/xlink" width="200.1953125" height="200"><defs><style type="text/css"></style></defs><path d="M142.004486 848.082116a26.848676 26.848676 0 0 1-20.836584-9.841085 508.376075 508.376075 0 0 1-42.598984-59.675154 27.077272 27.077272 0 0 1 46.26796-28.140247 446.323516 446.323516 0 0 0 38.12992 53.411606 27.134422 27.134422 0 0 1-3.554677 38.0842 28.185966 28.185966 0 0 1-17.407635 6.17211z m0 0" p-id="3319"></path><path d="M512.525355 1023.998663a509.507628 509.507628 0 0 1-295.415442-93.553176 27.008693 27.008693 0 1 1 31.146293-44.130582 456.141742 456.141742 0 0 0 264.269149 83.586362c252.827887 0 458.633445-205.496952 458.633445-457.993374S765.353242 53.914518 512.525355 53.914518 54.051928 259.514339 54.051928 512.022191a455.718838 455.718838 0 0 0 18.436319 128.757059 27.081844 27.081844 0 0 1-51.982877 15.213107A512.422235 512.422235 0 0 1 0.000251 511.976472C0.000251 229.659617 229.934185 0 512.639653 0S1025.279055 229.671047 1025.279055 512.022191 795.242253 1023.998663 512.525355 1023.998663z m0 0" p-id="3320"></path><path d="M427.590272 671.056876H244.221475a38.084201 38.084201 0 0 1-38.598543-38.564254v-36.141129c0-12.047043 4.823389-24.094086 16.881862-31.31774 4.834819-4.823389 12.069903-7.235084 16.893292-9.646779l127.876962-69.881994 12.069903-16.859002-12.069903 14.458738c-45.845057-36.152559-62.726919-108.434818-62.726919-146.987642v-81.929037c2.411695-57.834951 77.208516-115.692761 149.582214-115.692761s147.181949 60.235215 147.181948 115.658472v84.363591c0 9.635349-2.411695 103.611428-57.903529 146.976212 0 9.646778-7.235084 19.282127-16.893292 21.716681-9.646778 0-19.304987-7.223654-21.716681-16.870433 0-14.458738 4.823389-26.505781 14.481597-33.729434 33.775154-26.505781 43.433362-89.152691 43.433362-118.070166v-84.352162c0-28.917475-50.668446-77.105648-108.583405-77.105647s-110.98367 48.188172-110.983671 77.105647v84.329302c0 33.729435 14.481597 91.564385 48.256752 118.070166 9.646778 7.223654 16.881862 21.716681 14.470167 33.729435-2.411695 14.458738-9.646778 24.094086-21.716681 31.32917l-130.300086 69.881993c-4.834819 2.411695-7.246514 4.811959-12.069903 7.223654v36.14113h183.391657c9.658208 0 19.304987 9.646778 19.304986 19.282127a16.481818 16.481818 0 0 1-16.893292 16.870432z m287.117384 154.211295l4.834819-16.870432h2.445984l14.470168 9.635348c16.893292 12.058473 41.021668 9.646778 55.491835-2.400264l14.481597-14.458738c14.470168-14.458738 14.470168-36.152559 2.411695-53.011562l-9.658208-16.870432 16.893291-4.823389c21.716681-4.811959 36.198278-21.716681 36.198279-40.953089v-21.716681c0-21.716681-19.304987-38.552824-36.198279-40.964518l-16.893291-4.81196v-2.411694l9.669638-16.847573c12.058473-19.282127 9.646778-40.964518-2.411695-53.011561l-14.481597-14.458738c-14.515887-14.470168-38.644263-14.470168-55.537555-2.411695l-14.435878 9.658209h-2.411694l-4.834819-16.859003c-2.411695-16.870432-19.304987-36.152559-41.010238-36.152559h-21.716681c-19.304987 0-36.186849 14.470168-41.021668 36.152559l-4.857679 16.859003a2.365975 2.365975 0 0 0-2.411694 2.411694l-14.481597-9.635348c-16.881862-12.047043-41.010238-9.635349-55.491836 2.411694l-14.470167 14.458738c-14.458738 14.435878-14.458738 36.07255-2.411695 52.988702l9.669638 16.870432-19.304986 2.400265c-16.881862 2.411695-36.186849 19.282127-36.186849 40.964518v21.716681c0 19.270697 14.481597 36.141129 36.186849 40.964519l16.893292 4.811959-9.658208 16.870432c-12.058473 19.270697-9.646778 40.964518 2.423124 53.011562l14.470167 14.458738c14.458738 14.470168 38.609973 14.470168 55.468976 2.388835l16.893292-9.635349c2.411695 0 2.411695 0 4.823389 2.411695l4.857679 16.859002c4.823389 21.716681 21.716681 36.141129 41.010237 36.141129h19.304987c21.716681 0 36.186849-19.270697 41.010238-36.141129z m-123.019283-57.834951l-26.56293 16.847573s-2.423124 2.411695-7.246514 0l-14.470167-14.458738s0-4.823389 2.411694-7.223654l14.470168-26.50578c2.411695-4.823389 2.411695-12.047043 0-19.282127-2.411695-4.823389-4.823389-9.635349-4.823389-14.458738-2.411695-7.223654-7.212224-12.024183-14.470168-12.024183l-28.963195-7.223654a10.561165 10.561165 0 0 1-7.235083-2.411695v-21.716681a30.049029 30.049029 0 0 1 7.235083-4.811959l26.5515-7.223654a24.699867 24.699867 0 0 0 14.470168-12.058473c2.411695-4.811959 2.411695-9.635349 7.235084-14.458738 2.411695-4.811959 2.411695-12.047043 0-19.270697l-16.881862-26.505781c-2.411695-2.411695-2.411695-7.235084-2.411695-7.235083l16.881862-14.447308c2.411695 0 4.823389 0 4.823389 2.400265l24.128376 16.870432c4.834819 4.823389 12.069903 4.823389 19.304986 0 4.823389-2.411695 12.069903-4.823389 16.893292-7.223654 7.235084-2.411695 12.058473-7.235084 12.058473-14.458738l7.235084-28.917475a10.538305 10.538305 0 0 1 2.423124-7.235084h21.716682a29.843292 29.843292 0 0 1 4.823389 7.235084l7.235083 28.917475a24.711297 24.711297 0 0 0 12.058473 14.458738c4.823389 2.400265 12.069903 4.811959 16.893292 7.223654s14.481597 2.411695 19.304987 0l24.128376-16.870432a10.595454 10.595454 0 0 1 7.235083-2.400265l14.481598 14.447308s0 4.823389-2.423125 7.235083l-14.470167 24.094087c-2.411695 4.823389-4.823389 12.047043 0 19.282126 2.411695 4.811959 4.823389 12.047043 7.235083 16.859003 2.411695 7.235084 7.235084 12.058473 14.481598 12.058473l28.951765 7.223654a5.189144 5.189144 0 0 1 4.823389 4.811959v21.716681a10.561165 10.561165 0 0 1-7.235084 2.411695l-24.128376 9.635348a24.711297 24.711297 0 0 0-14.435878 12.047043l-7.235083 14.458738c-2.411695 4.823389-2.411695 12.047043 0 19.282127l14.481597 24.094086c2.411695 2.400265 2.411695 7.223654 2.411695 7.223654l-16.939012 14.435878c-2.411695 0-4.823389 0-4.823389-2.411695l-24.128376-14.435878c-4.823389-4.811959-12.069903-4.811959-19.304986 0-4.823389 2.411695-12.058473 4.823389-16.893292 7.235084-7.235084 2.400265-12.058473 7.223654-12.058473 14.458738l-7.235084 28.906045a5.189144 5.189144 0 0 1-4.823389 4.823389h-21.716681a10.549735 10.549735 0 0 1-2.411695-7.223653l-2.423124-26.505781a24.642718 24.642718 0 0 0-12.058473-14.458738c-4.823389-2.411695-12.058473-4.823389-16.881862-7.235084a26.288614 26.288614 0 0 0-12.069903-2.411694c-2.411695 0-7.235084 2.411695-9.646778 2.411694z m154.405602-96.376344c0-45.787908-38.598543-84.340731-84.4436-84.340732S577.206775 625.268968 577.206775 671.056876s38.609973 84.329302 84.4436 84.329301 84.4436-38.552824 84.4436-84.329301z m-38.598543 0a45.845057 45.845057 0 0 1-91.678684 0c0-24.094086 21.716681-45.787908 45.833627-45.787908a45.787908 45.787908 0 0 1 45.845057 45.787908z m0 0" p-id="3321"></path></svg>