<?xml version="1.0" standalone="no"?><!DOCTYPE svg PUBLIC "-//W3C//DTD SVG 1.1//EN" "http://www.w3.org/Graphics/SVG/1.1/DTD/svg11.dtd"><svg t="1551259501423" class="icon" style="" viewBox="0 0 1024 1024" version="1.1" xmlns="http://www.w3.org/2000/svg" p-id="1315" xmlns:xlink="http://www.w3.org/1999/xlink" width="200" height="200"><defs><style type="text/css"></style></defs><path d="M926.189566 969.07568H97.810434c-54.171932 0-97.810434-43.638501-97.810434-97.810434V167.782513c0-54.171932 43.638501-97.810434 97.810434-97.810434h828.379132c54.171932 0 97.810434 43.638501 97.810434 97.810434v703.482733c-0.752388 54.171932-44.390889 97.810434-97.810434 97.810434zM97.810434 125.648788c-23.324026 0-42.886113 18.809699-42.886114 42.886113v703.482733c0 23.324026 18.809699 42.886113 42.886114 42.886113h828.379132c23.324026 0 42.886113-18.809699 42.886114-42.886113V167.782513c0-23.324026-18.809699-42.886113-42.886114-42.886113H97.810434z m0 0" fill="" p-id="1316"></path><path d="M51.162381 266.345334h920.92285v32.352682H51.162381v-32.352682zM381.460691 165.525349c0 15.047759-12.038207 27.838354-27.838354 27.838354-15.047759 0-27.838354-12.038207-27.838355-27.838354V28.590742c0-15.047759 12.038207-27.838354 27.838355-27.838354 15.047759 0 27.838354 12.038207 27.838354 27.838354V165.525349z m316.002939 0c0 15.047759-12.038207 27.838354-27.838354 27.838354-15.047759 0-27.838354-12.038207-27.838355-27.838354V28.590742c0-15.047759 12.038207-27.838354 27.838355-27.838354 15.047759 0 27.838354 12.038207 27.838354 27.838354V165.525349z m0 0M218.192506 499.585599c0 17.304923 9.028655 33.857458 24.076414 42.133725 15.047759 9.028655 33.857458 9.028655 48.905217 0s24.076414-24.828802 24.076414-42.133725-9.028655-33.857458-24.076414-42.133725c-15.047759-9.028655-33.857458-9.028655-48.905217 0-14.295371 9.028655-24.076414 24.828802-24.076414 42.133725z m0 0M462.718589 499.585599c0 27.085966 21.819251 48.905217 48.905217 48.905217s48.905217-21.819251 48.905217-48.905217c0-17.304923-9.028655-33.857458-24.076415-42.133725-15.047759-9.028655-33.857458-9.028655-48.905216 0-15.800147 9.028655-24.828802 24.828802-24.828803 42.133725z m0 0M707.244673 499.585599c0 27.085966 21.819251 48.905217 48.905217 48.905217s48.905217-21.819251 48.905217-48.905217-21.819251-48.905217-48.905217-48.905217c-26.333578 0.752388-48.905217 22.571639-48.905217 48.905217z m0 0M218.192506 702.730345c0 17.304923 9.028655 33.857458 24.076414 42.133726 15.047759 9.028655 33.857458 9.028655 48.905217 0s24.076414-24.828802 24.076414-42.133726-9.028655-33.857458-24.076414-42.133725c-15.047759-9.028655-33.857458-9.028655-48.905217 0-14.295371 8.276267-24.076414 24.828802-24.076414 42.133725z m0 0M462.718589 702.730345c0 17.304923 9.028655 33.857458 24.076415 42.133726 15.047759 9.028655 33.857458 9.028655 48.905216 0s24.076414-24.828802 24.076415-42.133726-9.028655-33.857458-24.076415-42.133725c-15.047759-9.028655-33.857458-9.028655-48.905216 0-15.047759 8.276267-24.076414 24.828802-24.076415 42.133725z m0 0M707.244673 702.730345c0 27.085966 21.819251 48.905217 48.905217 48.905217s48.905217-21.819251 48.905217-48.905217-21.819251-48.905217-48.905217-48.905216c-26.333578 0-48.905217 21.819251-48.905217 48.905216z m0 0" fill="" p-id="1317"></path></svg>