<?xml version="1.0" standalone="no"?><!DOCTYPE svg PUBLIC "-//W3C//DTD SVG 1.1//EN" "http://www.w3.org/Graphics/SVG/1.1/DTD/svg11.dtd"><svg t="1554358110098" class="icon" style="" viewBox="0 0 1024 1024" version="1.1" xmlns="http://www.w3.org/2000/svg" p-id="5164" xmlns:xlink="http://www.w3.org/1999/xlink" width="200" height="200"><defs><style type="text/css"></style></defs><path d="M509.711059 90.744471c-208.022588-0.210824-386.891294 145.468235-429.537883 349.906823-1.957647 9.396706-3.132235 18.913882-4.909176 28.340706-2.499765 13.191529-13.522824 21.504-25.569882 19.516235a22.949647 22.949647 0 0 1-19.275294-26.624c13.191529-92.431059 49.362824-174.802824 110.08-245.790117 76.438588-89.328941 172.935529-144.805647 288.88847-163.990589C692.103529 8.613647 930.846118 180.525176 983.190588 426.827294c55.536941 260.999529-110.772706 515.945412-372.766117 571.723294a483.900235 483.900235 0 0 1-551.454118-296.327529 483.207529 483.207529 0 0 1-28.581647-109.568 22.979765 22.979765 0 0 1 19.215059-26.684235c12.047059-2.017882 23.582118 6.204235 25.539764 19.425882 7.168 48.097882 20.269176 94.358588 42.947765 137.426823 68.306824 129.596235 174.471529 209.769412 318.765177 234.405647 226.273882 38.640941 432.941176-100.984471 493.68847-306.778352 69.421176-235.068235-69.933176-482.243765-306.989176-544.707765a451.885176 451.885176 0 0 0-113.844706-14.998588z" fill="" p-id="5165"></path><path d="M709.511529 488.146824l-65.024-10.029177c-19.215059-2.981647-38.369882-6.144-57.645176-8.824471-10.360471-1.445647-16.685176-7.017412-20.961882-16.263529-16.263529-35.026824-32.798118-69.933176-49.272471-104.869647-1.174588-2.529882-2.439529-5.029647-4.367059-8.914824-1.776941 3.614118-3.011765 5.993412-4.156235 8.432942-16.022588 34.002824-32.466824 67.794824-47.766588 102.098823-5.782588 12.980706-14.486588 18.763294-28.220236 20.660706-38.490353 5.300706-76.860235 11.535059-116.976941 17.648941 2.439529 2.800941 4.035765 4.848941 5.842824 6.716236 26.834824 27.497412 53.398588 55.235765 80.624941 82.341647 9.035294 9.005176 11.836235 18.462118 9.697882 30.84047-6.866824 39.574588-13.131294 79.269647-19.57647 118.904471-0.210824 1.204706-0.030118 2.499765-0.030118 4.668235l8.673882-4.547765c32.677647-18.040471 65.385412-36.080941 98.032942-54.211764 6.866824-3.794824 13.763765-5.903059 21.504-2.95153 7.920941 3.041882 13.010824 8.583529 14.486588 16.896 1.566118 8.764235-0.813176 16.474353-8.07153 22.166588-1.807059 1.475765-3.855059 2.650353-5.872941 3.764706-48.579765 26.834824-97.069176 53.820235-145.859765 80.233412a32.316235 32.316235 0 0 1-19.124705 3.46353c-12.348235-1.927529-18.913882-13.643294-16.715295-27.346824 8.342588-51.952941 16.775529-103.875765 25.449412-155.798588 0.903529-5.451294 0.030118-9.095529-3.885176-13.071059-35.508706-36.080941-70.686118-72.463059-106.194824-108.544-7.559529-7.68-11.655529-15.992471-8.222117-26.563765 3.373176-10.450824 11.806118-14.396235 21.955764-15.902117 48.700235-7.348706 97.370353-14.908235 146.100706-22.106353 5.360941-0.783059 8.071529-3.072 10.24-7.800471 21.775059-46.742588 43.791059-93.394824 65.656471-140.107294 3.704471-7.890824 8.523294-14.245647 17.648941-15.932235 11.866353-2.198588 20.781176 2.770824 26.624 15.179294 19.305412 41.020235 38.550588 82.100706 57.856 123.151059a3.674353 3.674353 0 0 1 0.301176 0.722823c4.698353 20.239059 18.492235 25.961412 38.038589 28.220235 42.194824 4.848941 84.088471 12.378353 126.132706 18.672942 10.179765 1.536 18.612706 5.451294 22.046117 15.811764 3.523765 10.541176-0.572235 18.944-8.131765 26.624-35.508706 36.050824-70.776471 72.402824-106.194823 108.513883-3.493647 3.584-4.969412 6.716235-4.096 12.167529 8.824471 52.374588 17.257412 104.839529 25.660235 157.334588 2.228706 14.245647-5.692235 25.720471-18.492235 27.648-12.980706 1.927529-24.033882-6.535529-26.352941-20.570353-6.445176-39.152941-12.709647-78.305882-19.094588-117.458823-2.831059-17.377882-5.511529-34.816-8.704-52.10353-2.048-11.354353 0.301176-20.48 8.764235-28.943058 27.166118-27.136 53.820235-54.844235 80.624941-82.341647 2.168471-2.198588 4.096-4.457412 7.047529-7.68z" fill="" p-id="5166"></path></svg>