<?xml version="1.0" standalone="no"?><!DOCTYPE svg PUBLIC "-//W3C//DTD SVG 1.1//EN" "http://www.w3.org/Graphics/SVG/1.1/DTD/svg11.dtd"><svg t="1552615186894" class="icon" style="" viewBox="0 0 1024 1024" version="1.1" xmlns="http://www.w3.org/2000/svg" p-id="3064" xmlns:xlink="http://www.w3.org/1999/xlink" width="200" height="200"><defs><style type="text/css"></style></defs><path d="M477.7 496c-119.1 0-216-96.9-216-216s96.9-216 216-216 216 96.9 216 216-96.9 216-216 216z m0-400c-101.5 0-184.1 82.6-184.1 184.1s82.6 184.1 184.1 184.1 184.1-82.6 184.1-184.1S579.2 96 477.7 96z" p-id="3065"></path><path d="M94.5 960.1c-8.8 0-15.9-7.1-15.9-15.9 0-322.9 130.6-479.9 399.1-479.9 8.8 0 15.9 7.1 15.9 15.9s-7.1 15.9-15.9 15.9c-250.5 0-367.2 142.4-367.2 448 0 8.9-7.2 16-16 16zM731.6 939.4c-3.9 0-7.8-1.4-10.8-4.2L564.1 790.6c-51.7-51.6-51.7-132-2.2-181.4 44.7-44.7 121.6-48 169.8-8.5 50.7-40.9 125.3-35.8 169.6 8.5 49.4 49.4 49.4 129.8 0 179.2L742.4 935.2c-3.1 2.8-7 4.2-10.8 4.2z m-80.2-335.2c-25.4 0-49.2 9.8-67 27.6-37 37-37 97.1 0 134.1l147.1 135.9 147.6-136.3c36.5-36.5 36.5-96.7-0.5-133.6-35.7-35.6-98.5-35.6-134.1 0-6.2 6.2-18 8-24.3 1.8-19.5-19.7-43.3-29.5-68.8-29.5z" p-id="3066"></path></svg>