<?xml version="1.0" standalone="no"?><!DOCTYPE svg PUBLIC "-//W3C//DTD SVG 1.1//EN" "http://www.w3.org/Graphics/SVG/1.1/DTD/svg11.dtd"><svg t="1551259478013" class="icon" style="" viewBox="0 0 1024 1024" version="1.1" xmlns="http://www.w3.org/2000/svg" p-id="850" xmlns:xlink="http://www.w3.org/1999/xlink" width="200" height="200"><defs><style type="text/css"></style></defs><path d="M581.256852 902.487505 319.374376 902.487505c-83.856873 0-152.074557-68.217684-152.074557-152.074557L167.299819 555.360554l-67.092048 0c-14.58723 0-27.650757-9.018398-32.8205-22.659069-5.163603-13.640672-1.353834-29.057803 9.567913-38.720883l412.19183-364.639814c13.274328-11.743462 33.220612-11.743462 46.49494 0l412.18569 364.639814c10.934027 9.664104 14.736633 25.080212 9.573029 38.720883-5.174859 13.639648-18.23327 22.659069-32.821523 22.659069l-67.091024 0 0 195.051371c0 52.594869-26.596751 100.731192-71.149457 128.770805-16.403598 10.343579-38.052664 5.392824-48.391127-11.007705-10.327206-16.403598-5.392824-38.069037 11.012821-48.397267 24.001647-15.109116 38.33919-41.039695 38.33919-69.365834L787.299555 520.265244c0-19.379373 15.709797-35.093263 35.094286-35.093263l9.549493 0L512.393461 202.481597 192.843588 485.171981l9.550517 0c19.379373 0 35.093263 15.712867 35.093263 35.093263l0 230.146681c0 45.152363 36.739762 81.885985 81.885985 81.885985l261.881452 0c19.385513 0 35.094286 15.712867 35.094286 35.095309C616.350115 886.773615 600.642364 902.487505 581.256852 902.487505z" p-id="851"></path><path d="M580.743152 902.487505c-19.386536 0-35.093263-15.712867-35.093263-35.093263 0-19.381419 15.706727-35.095309 35.093263-35.095309 12.897751 0 23.39585-10.492982 23.39585-23.396873L604.139002 639.213333c0-12.903891-10.499122-23.396873-23.39585-23.396873L444.044794 615.81646c-12.897751 0-23.396873 10.492982-23.396873 23.396873l0 109.167329c0 19.379373-15.706727 35.093263-35.093263 35.093263-19.386536 0-35.094286-15.712867-35.094286-35.093263L350.460372 639.213333c0-51.602262 41.983183-93.584422 93.585445-93.584422l136.698359 0c51.601238 0 93.584422 41.98216 93.584422 93.584422l0 169.688727C674.327574 860.505345 632.343367 902.487505 580.743152 902.487505z" p-id="852"></path></svg>