<?xml version="1.0" standalone="no"?><!DOCTYPE svg PUBLIC "-//W3C//DTD SVG 1.1//EN" "http://www.w3.org/Graphics/SVG/1.1/DTD/svg11.dtd"><svg t="1551408658304" class="icon" style="" viewBox="0 0 1024 1024" version="1.1" xmlns="http://www.w3.org/2000/svg" p-id="2014" xmlns:xlink="http://www.w3.org/1999/xlink" width="200" height="200"><defs><style type="text/css"></style></defs><path d="M385.669268 343.003028c4.657067 0 6.989181 2.332115 6.989181 6.989181 0 4.660136-2.332115 6.989181-6.989181 6.989181l-3.319605 0c-4.660136 0-8.562003-1.630127-11.706623-4.892427-3.2623-3.260254-4.892427-7.164167-4.892427-11.706623l0-63.426565c0-1.747807-0.873903-2.620687-2.620687-2.620687l-10.308787 0c-1.864464 0-3.494591-0.698918-4.892427-2.096754-1.397836-1.397836-2.096754-3.027963-2.096754-4.892427 0-1.979074 0.698918-3.609201 2.096754-4.892427 1.397836-1.397836 3.027963-2.096754 4.892427-2.096754l10.308787 0c4.542456 0 8.444323 1.633197 11.706623 4.892427 3.260254 3.14462 4.892427 7.049556 4.892427 11.706623l0 63.426565c0 1.747807 0.873903 2.620687 2.62171 2.620687L385.669268 343.003028zM353.169063 233.796814c-3.494591-3.02694-3.728928-6.347568-0.698918-9.958816 3.14462-3.37691 6.464225-3.551896 9.958816-0.523933l23.239284 20.268626c3.37691 3.145643 3.551896 6.465249 0.523933 9.959839-2.446725 3.2623-5.709025 3.437286-9.784854 0.523933L353.169063 233.796814zM396.851958 282.547121c-1.864464 0-3.494591-0.698918-4.892427-2.096754-1.397836-1.397836-2.096754-3.02694-2.096754-4.892427 0-4.65809 2.329045-6.989181 6.989181-6.989181l32.32522 0c4.65809 0 6.989181 2.331092 6.989181 6.989181 0 4.660136-2.331092 6.989181-6.989181 6.989181L396.851958 282.547121zM495.050468 268.567735c4.65809 0 6.989181 2.331092 6.989181 6.989181 0 1.864464-0.699941 3.494591-2.096754 4.892427-1.283226 1.397836-2.914376 2.096754-4.892427 2.096754l-48.575322 0c-1.864464 0-3.494591-0.698918-4.892427-2.096754-1.397836-1.397836-2.096754-3.02694-2.096754-4.892427l0-15.376199-32.674167 0c-1.864464 0-3.494591-0.698918-4.892427-2.096754-1.397836-1.397836-2.096754-3.02694-2.096754-4.892427 0-1.980097 0.698918-3.609201 2.096754-4.892427 1.397836-1.397836 3.02694-2.096754 4.892427-2.096754l32.674167 0 0-8.387018-39.663348 0c-1.864464 0-3.494591-0.698918-4.892427-2.096754-1.397836-1.397836-2.096754-3.02694-2.096754-4.892427 0-1.980097 0.698918-3.609201 2.096754-4.892427 1.397836-1.397836 3.02694-2.096754 4.892427-2.096754l39.663348 0 0-3.319605c0-1.980097 0.698918-3.609201 2.096754-4.892427 1.397836-1.397836 3.027963-2.096754 4.892427-2.096754 1.980097 0 3.609201 0.698918 4.892427 2.096754 1.397836 1.283226 2.096754 2.913353 2.096754 4.892427l0 3.319605 37.741579 0c1.980097 0 3.609201 0.698918 4.892427 2.096754 1.397836 1.283226 2.096754 2.913353 2.096754 4.892427 0 1.864464-0.699941 3.494591-2.096754 4.892427-1.283226 1.397836-2.913353 2.096754-4.892427 2.096754l-37.741579 0 0 8.387018 33.723056 0c1.979074 0 3.608178 0.698918 4.891404 2.096754 1.397836 1.283226 2.097778 2.913353 2.097778 4.892427 0 1.864464-0.699941 3.494591-2.097778 4.892427-1.283226 1.397836-2.913353 2.096754-4.891404 2.096754l-33.723056 0 0 8.387018L495.050468 268.567735zM475.48076 290.234197c5.822612 0 10.772344 2.039449 14.852266 6.116301 4.075829 4.078899 6.116301 9.028631 6.116301 14.852266l0 36.168758c0 5.825682-2.039449 10.775414-6.116301 14.852266-4.078899 4.075829-9.028631 6.115278-14.852266 6.115278l-17.472953 0c-4.66116 0-6.989181-2.331092-6.989181-6.989181 0-4.65809 2.328022-6.989181 6.989181-6.989181l17.472953 0c1.979074 0 3.608178-0.698918 4.892427-2.096754 1.396813-1.397836 2.096754-3.02694 2.096754-4.892427l0-36.168758c0-1.980097-0.699941-3.609201-2.096754-4.892427-1.284249-1.397836-2.914376-2.096754-4.892427-2.096754l-58.010205 0c-1.864464 0-3.494591 0.698918-4.892427 2.096754-1.397836 1.283226-2.096754 2.913353-2.096754 4.892427l0 51.196009c0 1.861394-0.698918 3.494591-2.096754 4.892427-1.283226 1.397836-2.913353 2.096754-4.892427 2.096754-1.864464 0-3.494591-0.698918-4.892427-2.096754-1.397836-1.397836-2.096754-3.03001-2.096754-4.892427l0-51.196009c0-5.823636 2.036379-10.773368 6.115278-14.852266 4.193509-4.075829 9.143241-6.116301 14.852266-6.116301L475.48076 290.234197zM424.109766 326.57794c-1.863441 0-3.494591-0.698918-4.891404-2.096754-1.397836-1.397836-2.096754-3.027963-2.096754-4.892427 0-4.657067 2.328022-6.989181 6.988158-6.989181l44.556798 0c4.657067 0 6.989181 2.332115 6.989181 6.989181 0 4.660136-2.332115 6.989181-6.989181 6.989181L424.109766 326.57794zM468.666564 348.07044l-44.556798 0c-1.863441 0-3.494591-0.698918-4.891404-2.096754-1.397836-1.397836-2.096754-3.02694-2.096754-4.892427 0-1.980097 0.698918-3.609201 2.096754-4.892427 1.396813-1.397836 3.027963-2.096754 4.891404-2.096754l44.556798 0c4.657067 0 6.989181 2.331092 6.989181 6.989181C475.655745 345.741395 473.322607 348.07044 468.666564 348.07044z" p-id="2015"></path><path d="M669.605016 226.632647c1.979074 0 3.609201 0.698918 4.892427 2.096754 1.396813 1.283226 2.096754 2.913353 2.096754 4.892427 0 1.864464-0.699941 3.494591-2.096754 4.892427-1.283226 1.397836-2.914376 2.096754-4.892427 2.096754l-63.252603 0 0 10.658757 38.789445 0c6.291287 0 11.648294 2.214435 16.075117 6.639211 4.426823 4.428869 6.639211 9.784854 6.639211 16.075117l0 19.219737c0 6.175653-2.212388 11.532661-6.639211 16.075117-4.426823 4.428869-9.783831 6.640234-16.075117 6.640234l-91.558275 0c-6.28924 0-11.650341-2.211365-16.075117-6.640234-4.426823-4.542456-6.639211-9.899464-6.639211-16.075117l0-19.219737c0-6.290263 2.212388-11.647271 6.639211-16.075117 4.424776-4.425799 9.784854-6.639211 16.075117-6.639211l38.789445 0 0-10.658757-63.251579 0c-1.864464 0-3.495614-0.698918-4.892427-2.096754-1.396813-1.397836-2.096754-3.02694-2.096754-4.892427 0-1.980097 0.699941-3.609201 2.096754-4.892427 1.396813-1.397836 3.027963-2.096754 4.892427-2.096754l63.251579 0 0-5.941316c0-1.979074 0.699941-3.609201 2.096754-4.892427 1.39886-1.397836 3.027963-2.096754 4.892427-2.096754 1.981121 0 3.609201 0.698918 4.892427 2.096754 1.39886 1.283226 2.096754 2.913353 2.096754 4.892427l0 5.941316L669.605016 226.632647zM670.652881 353.4868c1.746784 0.816598 2.910283 2.214435 3.495614 4.193509 0.581238 1.861394 0.405229 3.609201-0.525979 5.242398-1.981121 3.959172-5.126764 4.949732-9.43386 2.970658l-57.837266-29.878494 0 26.733874c0 1.862417-0.697895 3.494591-2.096754 4.892427-1.283226 1.397836-2.912329 2.096754-4.892427 2.096754-1.864464 0-3.493567-0.698918-4.892427-2.096754-1.396813-1.397836-2.096754-3.03001-2.096754-4.892427l0-26.733874-57.83522 29.878494c-4.193509 2.096754-7.339152 1.106194-9.435906-2.970658-0.933255-1.633197-1.109264-3.37998-0.523933-5.242398 0.581238-1.862417 1.746784-3.260254 3.493567-4.193509l60.282968-31.276331c7.221472-3.726881 14.558577-3.726881 22.01541 0L670.652881 353.4868zM606.352413 265.24813l0 25.336038c0 1.864464-0.697895 3.494591-2.096754 4.892427-1.283226 1.397836-2.912329 2.096754-4.892427 2.096754-1.864464 0-3.493567-0.698918-4.892427-2.096754-1.396813-1.397836-2.096754-3.02694-2.096754-4.892427l0-25.336038-38.789445 0c-2.446725 0-4.485151 0.815575-6.116301 2.445702-1.746784 1.747807-2.620687 3.844561-2.620687 6.290263l0 19.219737c0 2.331092 0.873903 4.368494 2.620687 6.115278 1.63115 1.747807 3.669576 2.62171 6.116301 2.62171l91.558275 0c2.330068 0 4.369517-0.873903 6.116301-2.62171s2.62171-3.784186 2.62171-6.115278l0-19.219737c0-2.446725-0.874927-4.54348-2.62171-6.290263-1.746784-1.630127-3.78521-2.445702-6.116301-2.445702L606.352413 265.24813zM581.367369 283.245016c1.511423 1.166569 2.446725 2.681062 2.793626 4.542456 0.232291 1.982144-0.234337 3.729951-1.396813 5.242398-2.564405 3.494591-5.825682 3.962242-9.784854 1.397836l-12.929474-9.784854c-1.514493-1.163499-2.446725-2.677992-2.795673-4.542456-0.234337-1.862417 0.232291-3.609201 1.396813-5.242398 1.163499-1.512447 2.736321-2.446725 4.718465-2.795673 1.862417-0.232291 3.551896 0.234337 5.066389 1.397836L581.367369 283.245016zM625.747135 294.427706c-1.396813 1.165546-3.088338 1.632173-5.066389 1.397836-1.983167-0.349971-3.555989-1.280156-4.716418-2.795673-1.167592-1.512447-1.633197-3.260254-1.39886-5.242398 0.232291-1.861394 1.163499-3.37691 2.795673-4.542456l12.929474-9.784854c1.51347-1.162476 3.203972-1.630127 5.068436-1.397836 1.979074 0.348947 3.551896 1.283226 4.716418 2.795673 2.677992 3.729951 2.212388 6.989181-1.396813 9.784854L625.747135 294.427706z" p-id="2016"></path><path d="M916.635225 358.204242c-0.231267-0.234337-0.464581-0.465604-0.701988-0.696872l6.864338-6.999414-6.871501 6.991228c-15.113209-14.851243-35.640732-23.414269-57.800427-24.111141l-9.417487-0.295735L848.70816 162.777317c0-45.5228-36.677341-82.557274-81.757049-82.557274L253.001713 80.220043c-45.083801 0-81.761142 37.034475-81.761142 82.557274l0 170.196287-9.166777 0.527003c-20.834514 1.197268-40.261982 9.471722-54.701856 23.300682l-6.78759-7.088442 6.78145 7.094582-0.273223 0.264013-13.533224-13.967106 0.369414-0.355087c15.624862-14.959713 35.902698-24.636097 57.863872-27.753087L151.792637 162.776294c0-56.246025 45.401026-102.006232 101.209076-102.006232L766.951111 60.770062c55.802934 0 101.20396 45.760207 101.20396 102.006232l0 151.866826c23.436782 2.730181 44.963051 12.834306 61.393255 28.975938l0 0c0.298805 0.292666 0.593518 0.587378 0.88823 0.883113L916.635225 358.204242 916.635225 358.204242z" p-id="2017"></path><path d="M855.947028 962.255751 168.013063 962.255751c-56.248072 0-102.008278-42.357713-102.008278-94.42251L66.004785 406.51555c0-23.563672 9.706059-44.899606 28.850072-63.418378 3.816932-3.694135 9.892301-3.640923 13.644765 0.12075L497.862513 733.506906c3.694135 3.695159 9.067516 5.820566 14.731516 5.820566 5.671163 0 11.04659-2.124384 14.748912-5.826705l389.813147-389.812123c3.709485-3.711532 9.698896-3.808746 13.525038-0.218988 1.165546 1.092891 28.477588 27.125801 27.27418 63.215764l0 461.147822C957.95633 919.89906 912.1951 962.255751 855.947028 962.255751L855.947028 962.255751zM101.831758 364.069833c-10.876722 12.923334-16.378016 27.16571-16.378016 42.445718l0 461.317691c0 41.342594 37.036521 74.975599 82.560344 74.975599l687.932941 0c45.523823 0 82.561367-33.631982 82.561367-74.975599L938.508395 406.51555c0-0.11768 0.002047-0.234337 0.007163-0.348947 0.64366-17.911952-8.462742-33.017998-14.925944-41.409109L541.096177 747.249909c-7.321756 7.323802-17.711384 11.526521-28.501124 11.526521-10.783601 0-21.170159-4.201695-28.492938-11.526521L101.831758 364.069833 101.831758 364.069833z" p-id="2018"></path><path d="M183.137529 722.990389 207.899492 722.990389 207.899492 747.753375 183.137529 747.753375 183.137529 722.990389Z" p-id="2019"></path><path d="M183.137529 805.533336 207.899492 805.533336 207.899492 830.2953 183.137529 830.2953 183.137529 805.533336Z" p-id="2020"></path><path d="M265.680477 722.990389 290.44244 722.990389 290.44244 747.753375 265.680477 747.753375 265.680477 722.990389Z" p-id="2021"></path><path d="M300.071751 839.924611l-24.761963 0 0 12.382005 24.761963 0c6.878664 0 12.382005-5.502317 12.382005-12.382005l0-12.382005-12.382005 0L300.071751 839.924611 300.071751 839.924611z" p-id="2022"></path><path d="M161.126212 713.361077 161.126212 769.764692l68.785619 0 0-68.785619-56.403614 0C166.62853 700.979072 161.126212 706.482413 161.126212 713.361077L161.126212 713.361077zM217.529827 757.382687l-44.022633 0 0-44.022633 44.022633 0L217.529827 757.382687 217.529827 757.382687z" p-id="2023"></path><path d="M161.126212 839.924611c0 6.879688 5.502317 12.382005 12.382005 12.382005l56.403614 0 0-68.784596-68.785619 0L161.126212 839.924611 161.126212 839.924611zM173.508217 795.903002l44.022633 0 0 44.022633-44.022633 0L173.508217 795.903002 173.508217 795.903002z" p-id="2024"></path><path d="M243.668137 783.52202 287.691793 783.52202 287.691793 795.903002 243.668137 795.903002 243.668137 783.52202Z" p-id="2025"></path><path d="M275.309788 801.406342 261.552459 801.406342 261.552459 815.162648 275.309788 815.162648 275.309788 827.543629 287.691793 827.543629 287.691793 815.162648 312.453756 815.162648 312.453756 801.406342 287.691793 801.406342 275.309788 801.406342Z" p-id="2026"></path><path d="M243.668137 827.543629 256.050142 827.543629 256.050142 852.306616 243.668137 852.306616 243.668137 827.543629Z" p-id="2027"></path><path d="M261.552459 827.543629 273.933441 827.543629 273.933441 839.924611 261.552459 839.924611 261.552459 827.543629Z" p-id="2028"></path><path d="M243.668137 801.406342 256.050142 801.406342 256.050142 813.787324 243.668137 813.787324 243.668137 801.406342Z" p-id="2029"></path><path d="M300.071751 783.52202 312.453756 783.52202 312.453756 795.903002 300.071751 795.903002 300.071751 783.52202Z" p-id="2030"></path><path d="M300.071751 700.979072l-56.403614 0L243.668137 769.764692l68.785619 0 0-56.403614C312.453756 706.482413 306.950416 700.979072 300.071751 700.979072L300.071751 700.979072zM300.071751 757.382687l-44.022633 0 0-44.022633 44.022633 0L300.071751 757.382687 300.071751 757.382687z" p-id="2031"></path></svg>