<?xml version="1.0" standalone="no"?><!DOCTYPE svg PUBLIC "-//W3C//DTD SVG 1.1//EN" "http://www.w3.org/Graphics/SVG/1.1/DTD/svg11.dtd"><svg t="1551404966402" class="icon" style="" viewBox="0 0 1024 1024" version="1.1" xmlns="http://www.w3.org/2000/svg" p-id="3821" xmlns:xlink="http://www.w3.org/1999/xlink" width="200" height="200"><defs><style type="text/css"></style></defs><path d="M964.9152 760.32L875.7248 651.5712V548.0448A36.1472 36.1472 0 0 0 839.4752 512a36.1472 36.1472 0 0 0-36.1472 36.0448v119.9104l88.3712 95.5392c18.432 27.136-1.024 53.6576-33.8944 53.6576H166.1952c-32.8704 0-52.3264-26.5216-33.9968-53.6576L220.3648 667.9552v-225.28c0-157.4912 124.928-275.5584 291.328-275.5584a331.3664 331.3664 0 0 1 77.824 9.1136A33.8944 33.8944 0 0 0 629.9648 155.136a34.304 34.304 0 0 0-23.8592-44.9536l-10.8544-2.56V78.6432a83.1488 83.1488 0 0 0-165.9904 0v28.9792a365.568 365.568 0 0 0-174.08 92.16A333.1072 333.1072 0 0 0 148.6848 443.0848v208.4864L59.0848 760.32A81.92 81.92 0 0 0 128.2048 886.0672h218.9312c10.24 77.6192 80.0768 137.9328 164.6592 137.9328s154.7264-60.3136 164.7616-137.9328H896.2048a81.92 81.92 0 0 0 68.7104-125.7472zM491.008 78.7456a20.992 20.992 0 0 1 41.984 0v20.48c-6.9632 0-14.0288-0.6144-20.992-0.6144s-14.0288 0-20.48 0.6144z m20.48 876.2368c-50.3808 0-81.92-23.8592-92.16-68.9152h184.4224c-9.6256 45.056-41.3696 68.9152-91.7504 68.9152z" p-id="3822"></path><path d="M742.912 221.696m-35.84 0a35.84 35.84 0 1 0 71.68 0 35.84 35.84 0 1 0-71.68 0Z" p-id="3823"></path><path d="M829.952 366.2848m-35.84 0a35.84 35.84 0 1 0 71.68 0 35.84 35.84 0 1 0-71.68 0Z" p-id="3824"></path></svg>