<?xml version="1.0" standalone="no"?><!DOCTYPE svg PUBLIC "-//W3C//DTD SVG 1.1//EN" "http://www.w3.org/Graphics/SVG/1.1/DTD/svg11.dtd"><svg t="1552615623782" class="icon" style="" viewBox="0 0 1024 1024" version="1.1" xmlns="http://www.w3.org/2000/svg" p-id="7352" xmlns:xlink="http://www.w3.org/1999/xlink" width="200" height="200"><defs><style type="text/css"></style></defs><path d="M494.887 562.35c-103.582 0-187.883-83.157-187.883-185.388 0-102.231 84.249-185.336 187.883-185.336 103.583 0 187.883 83.105 187.883 185.336 0.001 102.231-84.3 185.388-187.883 185.388z m0-337.93c-85.288 0-154.62 68.45-154.62 152.542 0 84.146 69.385 152.542 154.62 152.542 85.236 0 154.621-68.395 154.621-152.542 0-84.092-69.385-152.542-154.621-152.542z m0 0" p-id="7353"></path><path d="M494.887 477.218c-56.079-0.104-101.555-44.905-101.606-100.204 0-9.096 7.431-16.422 16.632-16.422 9.199 0 16.631 7.327 16.631 16.422 0 37.214 30.611 67.357 68.344 67.357s68.343-30.143 68.343-67.357c0-9.096 7.434-16.422 16.633-16.422 9.201 0 16.631 7.327 16.631 16.422-0.053 55.299-45.529 100.152-101.608 100.204z m0 0M781.778 894.146c-4.418 0-8.628-1.663-11.745-4.78-3.119-3.068-4.885-7.226-4.885-11.591V685.632c0-39.19-32.224-70.945-71.932-70.995H296.87c-39.76 0.05-71.931 31.805-71.982 70.995v192.144c0 9.096-7.433 16.423-16.631 16.423s-16.631-7.327-16.631-16.423V685.632c0.052-57.275 47.087-103.636 105.14-103.74h396.452c58.055 0.104 105.09 46.465 105.194 103.74v192.144c-0.001 9.041-7.485 16.37-16.634 16.37z m0 0" p-id="7354"></path><path d="M495.51 892.38c-4.468 0-8.783-1.769-11.9-4.938l-51.09-51.817c-4.158-4.21-5.718-10.395-4.002-16.058l51.09-170.473c2.079-6.965 8.524-11.747 15.903-11.747 7.381 0 13.878 4.834 15.906 11.798l51.039 173.487c1.766 5.82 0.052 12.16-4.368 16.37l-51.037 48.805c-3.068 2.91-7.226 4.573-11.541 4.573z m-32.326-72.659l32.744 33.16 31.911-30.563-32.484-110.286-32.171 107.689z m0 0" p-id="7355"></path><path d="M0 511.002c0 281.693 229.201 510.894 510.948 510.894 281.745 0 510.945-229.2 510.945-510.894C1021.894 229.203 792.693 0 510.948 0 229.201 0 0 229.203 0 511.002z m30.975 0c0-264.7 215.325-480.024 479.973-480.024 264.697 0 480.021 215.324 480.021 480.024 0 264.646-215.324 479.971-480.021 479.971-264.648 0-479.973-215.326-479.973-479.971z" p-id="7356"></path></svg>